name C:/MyDriveSym/Projects/mobilecap/Data\Session20210910_0002\mocap\ForceDataProcessed\walking3_forces.mot
datacolumns 19
datarows 17
range 1.01950000 1.02750000
endheader 
time	R_ground_force_vx	R_ground_force_vy	R_ground_force_vz	R_ground_force_px	R_ground_force_py	R_ground_force_pz	R_ground_torque_x	R_ground_torque_y	R_ground_torque_z	L_ground_force_vx	L_ground_force_vy	L_ground_force_vz	L_ground_force_px	L_ground_force_py	L_ground_force_pz	L_ground_torque_x	L_ground_torque_y	L_ground_torque_z	
          1.01950000	          0.00000000	          0.00000000	          0.00000000	          1.29613000	          0.00000000	         -0.12445600	          0.00000000	          0.00000000	          0.00000000	         67.35427500	        857.36337200	         43.96001000	          0.95179500	          0.00600000	         -0.26754000	          0.00000000	          5.44087800	          0.00000000	
          1.02000000	          0.00000000	          0.00000000	          0.00000000	          1.29761700	          0.00000000	         -0.12437000	          0.00000000	          0.00000000	          0.00000000	         67.94503100	        858.06116800	         44.06448000	          0.95182100	          0.00600000	         -0.26753800	          0.00000000	          5.44120400	          0.00000000	
          1.02050000	          0.00000000	          0.00000000	          0.00000000	          1.29910300	          0.00000000	         -0.12428500	          0.00000000	          0.00000000	          0.00000000	         68.53632400	        858.75702300	         44.16856700	          0.95184700	          0.00600000	         -0.26753500	          0.00000000	          5.44136000	          0.00000000	
          1.02100000	          0.00000000	          0.00000000	          0.00000000	          1.30059000	          0.00000000	         -0.12419900	          0.00000000	          0.00000000	          0.00000000	         69.12813300	        859.45085100	         44.27226100	          0.95187300	          0.00600000	         -0.26753300	          0.00000000	          5.44134500	          0.00000000	
          1.02150000	          0.00000000	          0.00000000	          0.00000000	          1.30207600	          0.00000000	         -0.12411400	          0.00000000	          0.00000000	          0.00000000	         69.72043700	        860.14256400	         44.37554800	          0.95189900	          0.00600000	         -0.26753000	          0.00000000	          5.44115700	          0.00000000	
          1.02200000	          0.00000000	          0.00000000	          0.00000000	          1.30356300	          0.00000000	         -0.12402800	          0.00000000	          0.00000000	          0.00000000	         70.31321500	        860.83207400	         44.47841600	          0.95192500	          0.00600000	         -0.26752800	          0.00000000	          5.44079500	          0.00000000	
          1.02250000	          0.00000000	          0.00000000	          0.00000000	          1.30504900	          0.00000000	         -0.12394300	          0.00000000	          0.00000000	          0.00000000	         70.90644600	        861.51929400	         44.58085400	          0.95195000	          0.00600000	         -0.26752500	          0.00000000	          5.44025900	          0.00000000	
          1.02300000	          0.00000000	          0.00000000	          0.00000000	          1.30653600	          0.00000000	         -0.12385800	          0.00000000	          0.00000000	          0.00000000	         71.50010900	        862.20413500	         44.68284800	          0.95197600	          0.00600000	         -0.26752300	          0.00000000	          5.43954900	          0.00000000	
          1.02350000	          0.00000000	          0.00000000	          0.00000000	          1.30802200	          0.00000000	         -0.12377200	          0.00000000	          0.00000000	          0.00000000	         72.09418200	        862.88650700	         44.78438800	          0.95200100	          0.00600000	         -0.26752100	          0.00000000	          5.43866200	          0.00000000	
          1.02400000	          0.00000000	          0.00000000	          0.00000000	          1.30950900	          0.00000000	         -0.12368700	          0.00000000	          0.00000000	          0.00000000	         72.68864300	        863.56632200	         44.88546200	          0.95202600	          0.00600000	         -0.26751800	          0.00000000	          5.43759900	          0.00000000	
          1.02450000	          0.00000000	          0.00000000	          0.00000000	          1.31099500	          0.00000000	         -0.12360100	          0.00000000	          0.00000000	          0.00000000	         73.28347200	        864.24348800	         44.98605600	          0.95205100	          0.00600000	         -0.26751600	          0.00000000	          5.43635900	          0.00000000	
          1.02500000	          0.00000000	          0.00000000	          0.00000000	          1.31248200	          0.00000000	         -0.12351600	          0.00000000	          0.00000000	          0.00000000	         73.87864500	        864.91791600	         45.08615800	          0.95207600	          0.00600000	         -0.26751400	          0.00000000	          5.43494000	          0.00000000	
          1.02550000	          0.00000000	          0.00000000	          0.00000000	          1.31396800	          0.00000000	         -0.12343000	          0.00000000	          0.00000000	          0.00000000	         74.47414000	        865.58951200	         45.18575800	          0.95210100	          0.00600000	         -0.26751200	          0.00000000	          5.43334200	          0.00000000	
          1.02600000	          0.00000000	          0.00000000	          0.00000000	          1.31545500	          0.00000000	         -0.12334500	          0.00000000	          0.00000000	          0.00000000	         75.06993700	        866.25818700	         45.28484200	          0.95212600	          0.00600000	         -0.26750900	          0.00000000	          5.43156400	          0.00000000	
          1.02650000	          0.00000000	          0.00000000	          0.00000000	          1.31694100	          0.00000000	         -0.12325900	          0.00000000	          0.00000000	          0.00000000	         75.66601100	        866.92384700	         45.38339900	          0.95215100	          0.00600000	         -0.26750700	          0.00000000	          5.42960600	          0.00000000	
          1.02700000	          0.00000000	          0.00000000	          0.00000000	          1.31842800	          0.00000000	         -0.12317400	          0.00000000	          0.00000000	          0.00000000	         76.26234200	        867.58639900	         45.48141700	          0.95217600	          0.00600000	         -0.26750500	          0.00000000	          5.42746600	          0.00000000	
          1.02750000	          0.00000000	          0.00000000	          0.00000000	          1.31991400	          0.00000000	         -0.12308800	          0.00000000	          0.00000000	          0.00000000	         76.85890500	        868.24575000	         45.57888400	          0.95220000	          0.00600000	         -0.26750300	          0.00000000	          5.42514400	          0.00000000	
